# xmcd
#
# Track frame offsets:
#	150
#	15445
#	29000
#	39887
#	51610
#	63745
#	76407
#	92280
#	106442
#	119627
#	132852
#	144172
#	155090
#	176777
#	189260
#	200332
#	214387
#	227372
#	240445
#	255522
#
# Disc length: 3578 seconds
#
# Revision: 1
# Processed by: cddbd v1.4PL0 Copyright (c) Steve Scherf et al.
# Submitted via: CDmax 1.8
#
DISCID=110df814
DTITLE=Fred Astaire - The Fred Astaire Collection
DYEAR=1987
DGENRE=Blues
TTITLE0=Night and Day (Porter)
TTITLE1=My One and Only (G and I Gershwin)
TTITLE2=Fascinatin' Rhythm (G and I Gershwin)
TTITLE3=Puttin' on the Ritz (Berlin)
TTITLE4=White Heat - Dancing in the Dark (Dietz-Schwartz)
TTITLE5=Hang on to me (G and I Gershwin)
TTITLE6=The Continental (Conrad)
TTITLE7=Funny Face (G and I Gershwin)
TTITLE8=Lousiana (Razaf-Schafer-Johnson)
TTITLE9=Swiss Miss (G and I Gershwin)
TTITLE10=High Hat (G and I Gershwin)
TTITLE11=I can't be Bothered Now (Gershwin)
TTITLE12=Change Partners (berlin)
TTITLE13=I've got You on my Mind (Porter)
TTITLE14=Not my Girl (Astaire-Carter-Phillips)
TTITLE15=The Rabbitt an the Bromide (G and I Gershwin)
TTITLE16=The Half of it, Dearie, Blues (G and I Gershwin)
TTITLE17=Crazy Feet (Conrad-Mitchell-Gottler)
TTITLE18=Cheek to cheek (Berlin)
TTITLE19=This is a fine Romance (Field-Kern)
EXTD=
EXTT0=
EXTT1=
EXTT2=
EXTT3=
EXTT4=
EXTT5=
EXTT6=
EXTT7=
EXTT8=
EXTT9=
EXTT10=
EXTT11=
EXTT12=
EXTT13=
EXTT14=
EXTT15=
EXTT16=
EXTT17=
EXTT18=
EXTT19=
PLAYORDER=
